<?xml version="1.0" standalone="no"?>
<!DOCTYPE svg PUBLIC "-//W3C//DTD SVG 20010904//EN"
 "http://www.w3.org/TR/2001/REC-SVG-20010904/DTD/svg10.dtd">
<svg version="1.0" xmlns="http://www.w3.org/2000/svg"
 width="505.000000pt" height="505.000000pt" viewBox="0 0 505.000000 505.000000"
 preserveAspectRatio="xMidYMid meet">

<g transform="translate(0.000000,505.000000) scale(0.100000,-0.100000)"
fill="#000000" stroke="none">
<path d="M2315 4119 c-81 -7 -158 -24 -270 -59 -412 -127 -766 -439 -940 -828
-61 -138 -83 -201 -126 -377 -32 -125 -33 -138 -33 -335 -1 -179 2 -218 23
-310 75 -338 224 -612 458 -842 177 -174 384 -302 623 -383 434 -149 941 -76
1344 192 119 79 294 245 381 361 240 320 357 720 326 1113 -48 593 -378 1073
-916 1330 -256 122 -551 169 -870 138z m468 -209 c361 -70 667 -272 890 -587
83 -119 178 -347 218 -528 18 -76 17 -453 0 -545 -20 -102 -88 -297 -136 -388
-73 -137 -135 -221 -250 -340 -200 -208 -407 -321 -715 -393 -122 -28 -205
-37 -213 -21 -2 4 64 68 147 142 187 167 499 475 586 577 36 42 88 101 115
131 150 163 238 365 264 610 23 217 -45 477 -173 655 -55 78 -185 203 -262
252 -72 47 -158 86 -250 116 -38 12 -85 32 -104 44 -79 50 -362 204 -465 253
-61 30 -59 28 -50 43 12 18 265 4 398 -21z m-359 -113 c105 -57 208 -111 228
-122 20 -10 35 -23 32 -27 -3 -4 -38 -8 -77 -8 -86 0 -179 -19 -304 -61 l-92
-30 -128 87 c-70 48 -147 96 -171 106 -24 11 -41 25 -39 31 5 16 64 44 177 82
110 38 126 42 159 44 13 0 110 -45 215 -102z m-524 -150 c177 -107 199 -122
197 -128 -1 -3 -103 -57 -226 -120 l-223 -114 -37 45 c-19 25 -53 62 -74 83
-28 27 -37 43 -32 57 12 38 242 240 274 240 9 0 64 -29 121 -63z m766 -243
c62 -47 116 -89 119 -95 6 -10 -49 -197 -71 -241 -11 -22 -30 -32 -98 -53 -47
-14 -122 -41 -166 -60 -91 -39 -112 -42 -130 -20 -7 9 -48 41 -91 71 -43 30
-81 59 -84 64 -8 13 77 202 114 251 33 46 59 66 136 106 40 21 138 61 153 63
2 0 55 -39 118 -86z m-1162 -86 c31 -34 56 -66 56 -73 0 -6 -30 -28 -67 -49
-38 -22 -101 -64 -142 -95 -41 -31 -80 -60 -87 -66 -32 -23 -24 12 23 102 59
115 139 243 152 243 5 0 34 -28 65 -62z m526 42 c-6 -11 -30 -42 -54 -69 -59
-67 -96 -122 -148 -220 -24 -46 -47 -84 -52 -85 -6 0 -15 20 -21 45 -7 25 -24
72 -39 104 -14 31 -26 61 -26 65 0 5 37 27 83 51 45 23 118 61 162 85 92 49
111 54 95 24z m1248 -54 c96 -73 170 -163 226 -273 31 -61 22 -73 -35 -47 -24
10 -43 14 -49 8 -4 -5 -22 -43 -38 -84 -17 -41 -40 -96 -52 -122 l-21 -48
-153 0 -153 0 -90 113 c-49 61 -100 126 -112 143 l-22 31 42 124 c23 68 46
129 51 136 7 9 51 10 169 6 l159 -6 0 25 c0 23 7 38 17 38 3 0 30 -20 61 -44z
m-1619 -263 c36 -97 65 -218 58 -236 -3 -7 -46 -34 -96 -60 -51 -26 -133 -72
-183 -103 -50 -30 -94 -51 -98 -47 -4 4 -17 46 -30 93 -13 47 -34 109 -47 139
-13 29 -23 61 -23 71 0 19 111 102 272 203 108 68 100 71 147 -60z m553 -113
l105 -79 7 -113 c3 -62 9 -145 12 -183 l6 -71 -97 -89 c-70 -64 -101 -86 -110
-79 -101 71 -206 149 -215 159 -13 16 -29 140 -30 230 0 60 4 76 28 112 40 61
161 193 176 193 7 0 60 -36 118 -80z m-1009 -176 c20 -56 57 -192 57 -214 0
-18 -98 -93 -114 -87 -8 3 -9 47 -4 158 9 172 13 202 31 196 6 -2 20 -26 30
-53z m543 -166 c15 -195 2 -398 -28 -435 -5 -7 -40 -22 -76 -34 -37 -12 -104
-37 -149 -55 -117 -49 -114 -50 -107 49 4 46 1 137 -6 207 -19 187 -23 169 45
214 80 54 298 175 306 171 3 -3 10 -55 15 -117z m1560 74 c14 -10 94 -227 94
-257 0 -26 -120 -211 -170 -262 -34 -35 -52 -39 -200 -48 l-95 -6 -68 130
c-52 101 -66 135 -58 148 5 10 47 79 94 153 81 129 86 135 123 141 57 9 267
10 280 1z m-2011 -349 c11 -169 -5 -373 -29 -373 -24 0 -116 289 -116 367 0
27 9 39 58 77 31 25 62 45 69 46 7 0 13 -39 18 -117z m1236 77 c223 -71 199
-54 274 -197 36 -69 65 -130 64 -137 -1 -18 -198 -186 -219 -186 -80 0 -296
76 -332 117 -16 18 -118 235 -118 251 0 12 185 192 197 192 5 0 66 -18 134
-40z m1019 2 c0 -26 -63 -152 -111 -224 -86 -127 -206 -229 -183 -155 12 40
43 95 115 204 102 154 179 229 179 175z m-1684 -157 c21 -32 12 -55 -22 -55
-22 0 -25 3 -20 23 3 12 6 30 6 40 0 25 17 21 36 -8z m92 -167 c17 -24 60 -74
98 -112 l68 -69 -60 -114 c-32 -63 -66 -120 -74 -127 -10 -9 -62 -15 -165 -19
-82 -3 -160 -9 -172 -13 -31 -9 -29 1 13 93 59 127 96 227 123 330 11 38 16
43 59 56 71 22 79 21 110 -25z m-318 -196 c-84 -208 -127 -302 -139 -302 -5 0
-17 12 -27 27 -9 15 -37 51 -60 80 -71 87 -78 106 -64 175 7 32 18 62 24 66
14 9 150 66 241 102 40 15 74 23 80 18 6 -5 -15 -68 -55 -166z m770 -12 c36
-11 99 -27 140 -36 92 -18 132 -33 124 -46 -20 -32 -334 56 -334 93 0 11 -6
12 70 -11z m-182 -45 c45 -32 160 -84 232 -105 41 -12 81 -24 88 -26 11 -3
-60 -102 -124 -173 -11 -12 -23 -9 -81 21 -73 38 -190 78 -229 78 -13 0 -24 5
-24 10 0 17 99 210 108 210 4 0 17 -7 30 -15z m872 -84 c0 -18 -457 -441 -478
-441 -5 0 -22 18 -38 41 -15 22 -46 56 -67 74 l-39 34 84 103 c47 57 91 108
99 114 8 6 51 14 95 18 89 7 255 40 282 55 21 13 62 14 62 2z m-1176 -205 c-2
-23 -103 -181 -124 -194 -14 -8 -28 -3 -71 29 -30 22 -73 54 -96 72 -33 23
-43 38 -43 59 0 35 6 36 180 47 156 9 155 9 154 -13z m221 -11 c74 -20 169
-62 189 -84 14 -15 5 -27 -102 -139 -64 -67 -122 -122 -128 -122 -6 0 -58 20
-115 45 -57 25 -105 45 -106 45 -11 0 4 32 41 89 24 36 56 89 71 116 15 28 29
53 32 58 7 11 54 8 118 -8z m333 -189 c22 -24 48 -58 57 -75 l16 -32 -48 -54
c-26 -31 -58 -58 -70 -61 -28 -8 -213 26 -213 39 0 10 202 227 211 227 4 0 25
-20 47 -44z"/>
</g>
</svg>
